<?xml version="1.0" standalone="no"?>
<!DOCTYPE svg PUBLIC "-//W3C//DTD SVG 20010904//EN"
 "http://www.w3.org/TR/2001/REC-SVG-20010904/DTD/svg10.dtd">
<svg version="1.0" xmlns="http://www.w3.org/2000/svg"
 width="340.000000pt" height="340.000000pt" viewBox="0 0 340.000000 340.000000"
 preserveAspectRatio="xMidYMid meet">
<metadata>
Created by potrace 1.14, written by Peter Selinger 2001-2017
</metadata>
<g transform="translate(0.000000,340.000000) scale(0.100000,-0.100000)"
fill="#000000" stroke="none">
<path d="M2929 3215 c-3 -2 -167 -7 -364 -10 -198 -2 -409 -7 -470 -10 -60 -2
-243 -7 -405 -10 -162 -3 -370 -10 -463 -16 -92 -6 -216 -9 -275 -7 -151 4
-259 -15 -477 -84 -312 -99 -380 -140 -427 -257 -21 -52 -23 -69 -20 -221 1
-103 17 -309 42 -550 118 -1133 129 -1230 149 -1314 6 -24 24 -53 47 -75 20
-20 34 -30 30 -23 -4 6 -5 12 -2 12 3 0 14 -16 24 -35 23 -47 457 -482 502
-505 65 -33 150 -53 204 -47 28 3 143 22 256 42 113 20 329 59 480 86 315 56
377 67 440 79 25 5 74 14 110 20 36 6 85 15 110 20 25 5 74 14 110 20 36 6 85
15 110 20 63 12 250 46 340 61 93 15 213 68 262 116 23 22 51 68 72 119 31 70
36 94 36 158 0 63 -3 76 -16 76 -13 0 -15 5 -8 27 9 28 9 110 0 393 -3 85 -10
396 -16 690 -6 294 -15 646 -21 782 l-9 247 -38 61 c-20 33 -42 60 -48 60 -7
0 -25 15 -41 33 -28 32 -32 33 -107 35 -43 1 -86 4 -95 7 -10 3 -20 3 -22 0z
m69 -154 c55 -28 127 -111 141 -163 20 -73 56 -1923 42 -2104 -17 -207 -47
-227 -446 -294 -27 -5 -77 -14 -110 -20 -33 -6 -85 -15 -115 -20 -66 -10 -279
-49 -335 -60 -102 -21 -165 -32 -220 -40 -33 -4 -109 -17 -170 -28 -60 -12
-137 -25 -170 -31 -33 -5 -100 -19 -150 -31 -49 -11 -128 -23 -175 -26 -47 -2
-107 -9 -135 -15 -27 -5 -93 -13 -146 -16 -76 -5 -102 -3 -130 11 -29 14 -239
224 -239 240 0 17 40 2 65 -24 34 -35 60 -38 76 -9 6 12 13 101 16 213 7 240
-7 510 -67 1281 -6 72 -15 192 -20 268 -25 343 -31 418 -39 514 -5 56 -15 114
-23 130 -11 24 -20 28 -61 31 -57 4 -203 -20 -302 -48 -48 -14 -76 -28 -92
-47 -21 -26 -22 -27 -23 -7 0 31 36 72 83 93 54 24 473 161 494 161 12 0 10
-8 -11 -34 -36 -48 -32 -54 11 -16 58 52 90 60 246 65 337 10 1061 36 1064 38
1 2 204 4 452 5 433 3 451 2 489 -17z m-2461 -2464 c51 -56 82 -102 66 -96
-10 3 -64 60 -235 246 -21 23 -38 46 -38 50 0 10 145 -130 207 -200z"/>
<path d="M2350 2960 c0 -5 4 -10 9 -10 6 0 13 5 16 10 3 6 -1 10 -9 10 -9 0
-16 -4 -16 -10z"/>
<path d="M2578 2963 c12 -2 30 -2 40 0 9 3 -1 5 -23 4 -22 0 -30 -2 -17 -4z"/>
<path d="M2168 2953 c29 -2 74 -2 100 0 26 2 2 3 -53 3 -55 0 -76 -1 -47 -3z"/>
<path d="M2448 2953 c12 -2 30 -2 40 0 9 3 -1 5 -23 4 -22 0 -30 -2 -17 -4z"/>
<path d="M2615 2701 c-50 -22 -122 -115 -148 -191 -32 -95 -12 -200 54 -275
85 -96 200 -98 290 -6 66 68 99 140 99 217 0 72 -17 117 -70 189 -61 83 -139
106 -225 66z"/>
<path d="M1360 2628 c-53 -27 -101 -74 -154 -150 -36 -53 -39 -63 -39 -125 0
-84 29 -146 100 -215 58 -57 105 -78 174 -78 74 0 123 32 181 117 90 132 82
238 -30 383 -23 29 -135 90 -166 90 -12 0 -41 -10 -66 -22z"/>
<path d="M825 2410 c4 -172 71 -1079 80 -1088 11 -11 6 65 -44 753 -12 154
-25 332 -30 395 -9 112 -10 110 -6 -60z"/>
<path d="M2035 1936 c-64 -39 -130 -136 -155 -229 -11 -41 -10 -56 5 -112 14
-53 25 -72 65 -109 95 -89 191 -83 292 17 62 63 110 156 110 215 -1 78 -64
191 -124 224 -51 27 -143 24 -193 -6z"/>
<path d="M2676 1327 c-56 -31 -122 -131 -131 -196 -14 -103 11 -171 89 -242
47 -43 51 -44 115 -44 79 0 112 20 165 99 46 69 60 117 52 185 -11 102 -23
127 -82 176 -52 42 -60 45 -112 45 -40 0 -69 -7 -96 -23z"/>
<path d="M1523 1210 c-62 -7 -110 -41 -166 -121 -53 -75 -71 -143 -58 -213 14
-74 41 -125 87 -162 71 -56 139 -67 211 -34 53 23 136 133 158 207 32 110 10
217 -56 264 -78 55 -110 66 -176 59z"/>
</g>
</svg>
