<?xml version="1.0" standalone="no"?>
<!DOCTYPE svg PUBLIC "-//W3C//DTD SVG 20010904//EN"
 "http://www.w3.org/TR/2001/REC-SVG-20010904/DTD/svg10.dtd">
<svg version="1.0" xmlns="http://www.w3.org/2000/svg"
 width="260.000000pt" height="260.000000pt" viewBox="0 0 260.000000 260.000000"
 preserveAspectRatio="xMidYMid meet">
<metadata>
Created by potrace 1.14, written by Peter Selinger 2001-2017
</metadata>
<g transform="translate(0.000000,260.000000) scale(0.100000,-0.100000)"
fill="#000000" stroke="none">
<path d="M1138 2595 c-2 -2 -26 -7 -53 -10 -28 -4 -53 -9 -58 -12 -4 -2 -20
-7 -35 -10 -15 -3 -31 -6 -37 -7 -60 -13 -74 -19 -70 -25 2 -5 -7 -7 -20 -5
-14 1 -25 -2 -25 -7 0 -5 -3 -8 -7 -7 -5 0 -26 -7 -48 -17 -22 -10 -45 -18
-52 -18 -7 0 -15 -7 -18 -15 -3 -8 -12 -11 -20 -8 -8 3 -15 1 -15 -4 0 -6 -7
-10 -15 -10 -8 0 -15 -4 -15 -10 0 -5 -5 -10 -10 -10 -6 0 -16 -5 -23 -10 -7
-6 -37 -27 -67 -47 -30 -20 -59 -42 -63 -50 -4 -7 -12 -13 -18 -13 -19 0 -194
-187 -227 -242 -9 -15 -20 -28 -25 -28 -4 0 -5 -4 -2 -10 3 -5 2 -10 -3 -10
-5 0 -15 -13 -22 -30 -7 -16 -16 -30 -20 -30 -5 0 -11 -13 -15 -30 -4 -16 -10
-30 -15 -30 -7 0 -17 -27 -20 -55 -1 -5 -8 -14 -16 -18 -8 -5 -12 -12 -9 -17
3 -5 1 -11 -5 -15 -6 -4 -8 -11 -5 -16 4 -5 2 -9 -3 -9 -5 0 -9 -6 -10 -12 -1
-22 -11 -58 -18 -70 -5 -7 -9 -19 -10 -28 -1 -8 -5 -26 -9 -40 -3 -14 -8 -34
-10 -45 -2 -11 -7 -31 -10 -45 -12 -42 -15 -352 -4 -405 6 -27 12 -61 14 -75
2 -14 7 -34 9 -45 3 -11 9 -36 14 -55 5 -20 14 -45 21 -58 6 -12 9 -22 5 -22
-3 0 -1 -7 6 -15 7 -8 10 -15 7 -15 -7 0 93 -202 103 -210 4 -3 15 -21 25 -40
10 -19 21 -37 25 -40 4 -3 29 -32 55 -65 27 -33 70 -80 96 -105 55 -53 129
-118 135 -119 2 -1 34 -21 71 -45 98 -63 255 -136 327 -152 38 -9 51 -12 51
-14 0 -1 11 -3 25 -6 14 -2 36 -7 50 -10 48 -13 66 -14 220 -18 104 -3 180 1
230 10 41 8 86 15 100 17 14 2 31 7 38 11 7 4 17 4 22 1 6 -3 10 -1 10 4 0 6
9 11 20 11 11 0 20 5 20 11 0 5 4 8 9 5 12 -8 153 52 202 85 14 10 28 16 31
13 3 -2 11 2 18 11 7 8 17 15 22 15 9 0 23 10 59 43 10 9 19 15 19 12 0 -6 36
22 71 57 16 16 31 28 34 28 3 0 25 21 48 46 23 26 54 59 68 74 14 15 36 43 50
61 13 19 29 40 36 47 7 8 11 18 8 23 -4 5 -2 9 2 9 10 0 70 105 98 170 11 25
22 47 25 50 5 5 10 21 14 45 1 6 4 15 8 20 3 6 9 26 14 45 11 50 11 50 14 53
4 5 20 88 25 131 3 21 7 48 11 59 5 15 3 17 -7 11 -11 -6 -12 -5 -2 7 12 15
12 255 0 295 -8 25 -19 92 -21 126 0 14 -4 24 -8 21 -5 -2 -9 5 -9 16 -2 27
-6 41 -29 96 -5 11 -14 37 -21 58 -7 20 -17 37 -22 37 -4 0 -5 5 -2 10 3 6 1
10 -5 10 -6 0 -9 4 -5 9 3 5 1 12 -5 16 -6 4 -8 11 -5 16 4 5 2 9 -3 9 -5 0
-14 12 -21 28 -17 38 -94 151 -130 190 -16 17 -28 32 -25 32 3 0 -11 16 -32
35 -20 19 -41 35 -45 35 -5 0 -9 6 -9 13 0 7 -9 19 -21 27 -11 8 -33 25 -47
38 -90 78 -352 222 -404 222 -9 0 -20 5 -23 10 -3 6 -19 10 -36 10 -16 0 -29
5 -29 12 0 6 -3 8 -6 5 -4 -3 -16 -2 -27 4 -15 9 -18 8 -11 -3 6 -10 5 -11 -7
-2 -8 6 -22 10 -31 9 -10 -2 -18 0 -18 4 0 4 -10 8 -22 9 -41 5 -366 10 -370
7z"/>
</g>
</svg>
